<svg xmlns="http://www.w3.org/2000/svg" width="24" height="24" fill="none" viewBox="0 0 24 24" id="whatsapp-new-chat">
  <path fill="#5E94FF" d="M3 4.75C2.0335 4.75 1.25 5.5335 1.25 6.5V17.5C1.25 18.4665 2.0335 19.25 3 19.25H17C17.9665 19.25 18.75 18.4665 18.75 17.5V11.2439L22.6066 5.94113C22.7725 5.71299 22.7963 5.41104 22.6683 5.15967C22.5403 4.90829 22.2821 4.75 22 4.75H3Z"></path>
  <path fill="#ECEFF1" fill-rule="evenodd" d="M4.25 10C4.25 9.58579 4.58579 9.25 5 9.25H15C15.4142 9.25 15.75 9.58579 15.75 10 15.75 10.4142 15.4142 10.75 15 10.75H5C4.58579 10.75 4.25 10.4142 4.25 10zM4.25 14C4.25 13.5858 4.58579 13.25 5 13.25H12C12.4142 13.25 12.75 13.5858 12.75 14 12.75 14.4142 12.4142 14.75 12 14.75H5C4.58579 14.75 4.25 14.4142 4.25 14z" clip-rule="evenodd"></path>
</svg>
